M48
; DRILL file {KiCad (6.0.4)} date Sun Apr 24 17:28:23 2022
; FORMAT={-:-/ absolute / metric / decimal}
; #@! TF.CreationDate,2022-04-24T17:28:23+09:00
; #@! TF.GenerationSoftware,Kicad,Pcbnew,(6.0.4)
; #@! TF.FileFunction,MixedPlating,1,2
FMAT,2
METRIC
; #@! TA.AperFunction,Plated,PTH,ViaDrill
T1C0.400
; #@! TA.AperFunction,Plated,PTH,ComponentDrill
T2C0.750
; #@! TA.AperFunction,Plated,PTH,ComponentDrill
T3C0.762
; #@! TA.AperFunction,Plated,PTH,ComponentDrill
T4C0.800
; #@! TA.AperFunction,Plated,PTH,ComponentDrill
T5C0.900
; #@! TA.AperFunction,Plated,PTH,ComponentDrill
T6C1.000
; #@! TA.AperFunction,Plated,PTH,ComponentDrill
T7C1.270
; #@! TA.AperFunction,Plated,PTH,ComponentDrill
T8C1.300
; #@! TA.AperFunction,Plated,PTH,ComponentDrill
T9C1.320
; #@! TA.AperFunction,NonPlated,NPTH,ComponentDrill
T10C3.200
%
G90
G05
T1
X52.959Y-55.626
X55.905Y-47.701
X68.072Y-41.275
X69.788Y-38.735
X69.788Y-41.275
X71.628Y-53.34
X71.628Y-57.531
X72.263Y-49.352
X72.263Y-54.356
X72.288Y-87.706
X72.517Y-38.735
X72.629Y-57.546
X72.949Y-98.044
X73.025Y-68.199
X73.406Y-63.754
X73.914Y-68.707
X74.515Y-58.546
X74.701Y-82.626
X75.212Y-40.005
X75.438Y-58.928
X75.654Y-41.275
X77.292Y-50.495
X78.613Y-64.897
X78.7Y-77.481
X79.172Y-81.331
X82.931Y-54.102
X90.805Y-89.535
X91.567Y-80.518
X92.329Y-54.229
X93.472Y-82.423
X95.631Y-51.816
X96.52Y-65.786
X101.98Y-45.061
X101.981Y-42.037
X104.597Y-52.527
X106.985Y-55.347
X124.116Y-42.545
X124.788Y-41.275
X126.492Y-44.323
X128.981Y-50.546
X130.581Y-41.275
X132.08Y-41.275
X133.807Y-57.531
X137.312Y-62.738
X138.303Y-59.309
X141.097Y-55.118
X143.535Y-66.827
X143.535Y-74.803
X143.561Y-71.018
X147.65Y-60.935
T2
X144.611Y-78.01
X144.611Y-80.01
X144.611Y-82.01
X145.119Y-45.879
X145.119Y-47.879
X145.119Y-49.879
T3
X52.756Y-79.2
X52.756Y-100.26
X55.296Y-79.2
X55.296Y-100.26
X80.696Y-79.4
X80.696Y-81.94
X80.696Y-84.48
X80.696Y-87.02
X80.696Y-89.56
X80.696Y-92.1
X80.696Y-94.64
X80.696Y-97.18
X80.696Y-99.72
X96.52Y-49.315
X96.52Y-88.138
X97.79Y-95.25
X97.79Y-102.87
X99.06Y-49.315
X99.06Y-88.138
X100.33Y-95.25
X100.33Y-102.87
X101.6Y-49.315
X101.6Y-88.138
X102.87Y-95.25
X102.87Y-102.87
X104.14Y-49.315
X104.14Y-88.138
X105.41Y-95.25
X105.41Y-102.87
X106.68Y-88.138
T4
X53.34Y-49.733
X58.166Y-67.838
X58.166Y-70.338
X60.294Y-65.964
X60.63Y-104.775
X60.706Y-80.12
X60.706Y-85.0
X60.96Y-49.733
X62.794Y-65.964
X64.912Y-48.006
X64.912Y-50.546
X65.532Y-66.167
X65.532Y-73.787
X65.786Y-77.47
X65.786Y-79.97
X65.786Y-82.55
X65.786Y-85.05
X68.25Y-104.775
X69.737Y-47.977
X69.737Y-50.517
X69.86Y-60.97
X69.86Y-63.51
X69.86Y-66.05
X69.86Y-68.59
X69.86Y-71.13
X69.86Y-73.67
X69.86Y-76.21
X69.86Y-78.75
X69.86Y-81.29
X69.86Y-83.83
X69.86Y-86.37
X69.86Y-88.91
X69.86Y-91.45
X69.86Y-93.99
X74.817Y-47.977
X74.817Y-50.517
X77.48Y-60.97
X77.48Y-63.51
X77.48Y-66.05
X77.48Y-68.59
X77.48Y-71.13
X77.48Y-73.67
X77.48Y-76.21
X77.48Y-78.75
X77.48Y-81.29
X77.48Y-83.83
X77.48Y-86.37
X77.48Y-88.91
X77.48Y-91.45
X77.48Y-93.99
X80.284Y-74.422
X82.784Y-74.422
X88.153Y-91.669
X90.653Y-91.669
X93.98Y-54.737
X101.6Y-54.737
X107.208Y-91.11
X109.708Y-91.11
X117.856Y-53.95
X117.856Y-61.57
X121.793Y-55.474
X124.714Y-90.551
X124.714Y-98.171
X126.238Y-49.276
X126.238Y-51.816
X129.413Y-55.474
X131.572Y-49.276
X131.572Y-51.816
X136.652Y-49.276
X136.652Y-51.816
T5
X53.447Y-45.441
X55.987Y-45.441
X71.608Y-104.851
X74.148Y-104.851
X124.353Y-60.985
X126.893Y-60.985
T6
X53.467Y-83.19
X53.467Y-85.73
X53.467Y-88.27
X53.467Y-90.81
X53.467Y-93.35
X62.5Y-40.0
X62.5Y-42.5
X122.276Y-72.221
X122.276Y-77.221
X132.055Y-64.917
X132.055Y-69.917
X137.5Y-40.0
X137.5Y-42.5
T7
X72.5Y-40.64
X127.5Y-41.91
X128.078Y-93.341
X128.078Y-95.631
X128.078Y-97.921
T8
X54.102Y-68.031
X54.102Y-74.531
T9
X142.0Y-91.235
X142.0Y-96.235
X142.354Y-60.897
X142.354Y-64.897
X142.354Y-68.897
X144.954Y-60.897
X144.954Y-64.897
X144.954Y-68.897
T10
X54.993Y-39.985
X55.0Y-105.0
X145.0Y-40.0
X145.0Y-105.0
T3
G00X142.235Y-56.897
M15
G01X144.473Y-56.897
M16
G05
G00X142.235Y-72.897
M15
G01X144.473Y-72.897
M16
G05
T0
M30
