G04 #@! TF.GenerationSoftware,KiCad,Pcbnew,(6.0.4)*
G04 #@! TF.CreationDate,2022-04-24T17:27:05+09:00*
G04 #@! TF.ProjectId,DERC_CanSat_2022,44455243-5f43-4616-9e53-61745f323032,rev?*
G04 #@! TF.SameCoordinates,Original*
G04 #@! TF.FileFunction,Soldermask,Bot*
G04 #@! TF.FilePolarity,Negative*
%FSLAX46Y46*%
G04 Gerber Fmt 4.6, Leading zero omitted, Abs format (unit mm)*
G04 Created by KiCad (PCBNEW (6.0.4)) date 2022-04-24 17:27:05*
%MOMM*%
%LPD*%
G01*
G04 APERTURE LIST*
G04 Aperture macros list*
%AMRoundRect*
0 Rectangle with rounded corners*
0 $1 Rounding radius*
0 $2 $3 $4 $5 $6 $7 $8 $9 X,Y pos of 4 corners*
0 Add a 4 corners polygon primitive as box body*
4,1,4,$2,$3,$4,$5,$6,$7,$8,$9,$2,$3,0*
0 Add four circle primitives for the rounded corners*
1,1,$1+$1,$2,$3*
1,1,$1+$1,$4,$5*
1,1,$1+$1,$6,$7*
1,1,$1+$1,$8,$9*
0 Add four rect primitives between the rounded corners*
20,1,$1+$1,$2,$3,$4,$5,0*
20,1,$1+$1,$4,$5,$6,$7,0*
20,1,$1+$1,$6,$7,$8,$9,0*
20,1,$1+$1,$8,$9,$2,$3,0*%
G04 Aperture macros list end*
%ADD10C,1.600000*%
%ADD11O,1.600000X1.600000*%
%ADD12C,3.200000*%
%ADD13RoundRect,0.250000X0.750000X-0.600000X0.750000X0.600000X-0.750000X0.600000X-0.750000X-0.600000X0*%
%ADD14O,2.000000X1.700000*%
%ADD15C,1.524000*%
%ADD16R,2.000000X2.000000*%
%ADD17C,2.000000*%
%ADD18C,1.980000*%
%ADD19O,3.700000X1.300000*%
%ADD20R,1.905000X1.905000*%
%ADD21C,1.905000*%
%ADD22R,3.960000X1.980000*%
%ADD23O,3.960000X1.980000*%
%ADD24R,1.600000X1.600000*%
%ADD25R,1.800000X1.800000*%
%ADD26C,1.800000*%
%ADD27C,1.500000*%
%ADD28RoundRect,0.250000X-0.750000X0.600000X-0.750000X-0.600000X0.750000X-0.600000X0.750000X0.600000X0*%
%ADD29C,1.950000*%
%ADD30R,2.390000X2.390000*%
%ADD31R,1.700000X1.700000*%
%ADD32O,1.700000X1.700000*%
%ADD33RoundRect,0.250000X0.625000X-0.350000X0.625000X0.350000X-0.625000X0.350000X-0.625000X-0.350000X0*%
%ADD34O,1.750000X1.200000*%
G04 APERTURE END LIST*
D10*
G04 #@! TO.C,C4*
X65786000Y-85050000D03*
X65786000Y-82550000D03*
G04 #@! TD*
G04 #@! TO.C,R3*
X126238000Y-49276000D03*
D11*
X126238000Y-51816000D03*
G04 #@! TD*
D12*
G04 #@! TO.C,REF\u002A\u002A*
X145000000Y-105000000D03*
G04 #@! TD*
D10*
G04 #@! TO.C,R5*
X124714000Y-90551000D03*
D11*
X124714000Y-98171000D03*
G04 #@! TD*
D13*
G04 #@! TO.C,M2*
X62500000Y-42500000D03*
D14*
X62500000Y-40000000D03*
G04 #@! TD*
D12*
G04 #@! TO.C,*
X145000000Y-40000000D03*
G04 #@! TD*
D15*
G04 #@! TO.C,U3*
X106680000Y-88138000D03*
X104140000Y-88138000D03*
X101600000Y-88138000D03*
X99060000Y-88138000D03*
X96520000Y-88138000D03*
G04 #@! TD*
D16*
G04 #@! TO.C,C9*
X122275600Y-77221477D03*
D17*
X122275600Y-72221477D03*
G04 #@! TD*
D10*
G04 #@! TO.C,C3*
X65786000Y-79970000D03*
X65786000Y-77470000D03*
G04 #@! TD*
D18*
G04 #@! TO.C,S1*
X142354000Y-68897000D03*
X142354000Y-64897000D03*
X142354000Y-60897000D03*
X144954000Y-68897000D03*
X144954000Y-64897000D03*
X144954000Y-60897000D03*
D19*
X143354000Y-56897000D03*
X143354000Y-72897000D03*
G04 #@! TD*
D20*
G04 #@! TO.C,Q1*
X128078000Y-97921000D03*
D21*
X128078000Y-95631000D03*
X128078000Y-93341000D03*
G04 #@! TD*
D12*
G04 #@! TO.C,REF\u002A\u002A*
X55000000Y-105000000D03*
G04 #@! TD*
D22*
G04 #@! TO.C,J3*
X142000000Y-91235000D03*
D23*
X142000000Y-96235000D03*
G04 #@! TD*
D10*
G04 #@! TO.C,R2*
X93980000Y-54737000D03*
D11*
X101600000Y-54737000D03*
G04 #@! TD*
D10*
G04 #@! TO.C,R6*
X68249800Y-104775000D03*
D11*
X60629800Y-104775000D03*
G04 #@! TD*
D24*
G04 #@! TO.C,D1*
X117856000Y-61569600D03*
D11*
X117856000Y-53949600D03*
G04 #@! TD*
D10*
G04 #@! TO.C,C2*
X60294200Y-65963800D03*
X62794200Y-65963800D03*
G04 #@! TD*
D25*
G04 #@! TO.C,D3*
X124353400Y-60985400D03*
D26*
X126893400Y-60985400D03*
G04 #@! TD*
D24*
G04 #@! TO.C,U1*
X69860000Y-60970000D03*
D11*
X69860000Y-63510000D03*
X69860000Y-66050000D03*
X69860000Y-68590000D03*
X69860000Y-71130000D03*
X69860000Y-73670000D03*
X69860000Y-76210000D03*
X69860000Y-78750000D03*
X69860000Y-81290000D03*
X69860000Y-83830000D03*
X69860000Y-86370000D03*
X69860000Y-88910000D03*
X69860000Y-91450000D03*
X69860000Y-93990000D03*
X77480000Y-93990000D03*
X77480000Y-91450000D03*
X77480000Y-88910000D03*
X77480000Y-86370000D03*
X77480000Y-83830000D03*
X77480000Y-81290000D03*
X77480000Y-78750000D03*
X77480000Y-76210000D03*
X77480000Y-73670000D03*
X77480000Y-71130000D03*
X77480000Y-68590000D03*
X77480000Y-66050000D03*
X77480000Y-63510000D03*
X77480000Y-60970000D03*
G04 #@! TD*
D27*
G04 #@! TO.C,Y1*
X60706000Y-85000000D03*
X60706000Y-80120000D03*
G04 #@! TD*
D15*
G04 #@! TO.C,U2*
X96520000Y-49315000D03*
X99060000Y-49315000D03*
X101600000Y-49315000D03*
X104140000Y-49315000D03*
G04 #@! TD*
D28*
G04 #@! TO.C,M1*
X137500000Y-40000000D03*
D14*
X137500000Y-42500000D03*
G04 #@! TD*
D12*
G04 #@! TO.C,*
X54992578Y-39985156D03*
G04 #@! TD*
D10*
G04 #@! TO.C,R8*
X69737500Y-47977000D03*
D11*
X69737500Y-50517000D03*
G04 #@! TD*
D15*
G04 #@! TO.C,U5*
X105410000Y-95250000D03*
X102870000Y-95250000D03*
X100330000Y-95250000D03*
X97790000Y-95250000D03*
X105410000Y-102870000D03*
X102870000Y-102870000D03*
X100330000Y-102870000D03*
X97790000Y-102870000D03*
G04 #@! TD*
D10*
G04 #@! TO.C,C6*
X90652600Y-91668600D03*
X88152600Y-91668600D03*
G04 #@! TD*
D29*
G04 #@! TO.C,SW2*
X54102000Y-68030500D03*
X54102000Y-74530500D03*
G04 #@! TD*
D30*
G04 #@! TO.C,IC5*
X72500000Y-40640000D03*
G04 #@! TD*
D10*
G04 #@! TO.C,C7*
X107208000Y-91109800D03*
X109708000Y-91109800D03*
G04 #@! TD*
G04 #@! TO.C,R4*
X64911500Y-48006000D03*
D11*
X64911500Y-50546000D03*
G04 #@! TD*
D31*
G04 #@! TO.C,U6*
X53467000Y-83190000D03*
D32*
X53467000Y-85730000D03*
X53467000Y-88270000D03*
X53467000Y-90810000D03*
X53467000Y-93350000D03*
G04 #@! TD*
D33*
G04 #@! TO.C,J2*
X144611000Y-82010000D03*
D34*
X144611000Y-80010000D03*
X144611000Y-78010000D03*
G04 #@! TD*
D33*
G04 #@! TO.C,J1*
X145119000Y-49879000D03*
D34*
X145119000Y-47879000D03*
X145119000Y-45879000D03*
G04 #@! TD*
D10*
G04 #@! TO.C,C1*
X80284000Y-74422000D03*
X82784000Y-74422000D03*
G04 #@! TD*
G04 #@! TO.C,R7*
X131572000Y-49276000D03*
D11*
X131572000Y-51816000D03*
G04 #@! TD*
D25*
G04 #@! TO.C,D4*
X55986600Y-45440600D03*
D26*
X53446600Y-45440600D03*
G04 #@! TD*
D10*
G04 #@! TO.C,R10*
X74817500Y-47977000D03*
D11*
X74817500Y-50517000D03*
G04 #@! TD*
D10*
G04 #@! TO.C,R11*
X129413000Y-55473600D03*
D11*
X121793000Y-55473600D03*
G04 #@! TD*
D10*
G04 #@! TO.C,R1*
X65532000Y-66167000D03*
D11*
X65532000Y-73787000D03*
G04 #@! TD*
D30*
G04 #@! TO.C,IC4*
X127500000Y-41910000D03*
G04 #@! TD*
D16*
G04 #@! TO.C,C8*
X132054600Y-64916923D03*
D17*
X132054600Y-69916923D03*
G04 #@! TD*
D10*
G04 #@! TO.C,R12*
X53340000Y-49733200D03*
D11*
X60960000Y-49733200D03*
G04 #@! TD*
D25*
G04 #@! TO.C,D2*
X74147600Y-104851200D03*
D26*
X71607600Y-104851200D03*
G04 #@! TD*
D10*
G04 #@! TO.C,R9*
X136652000Y-49276000D03*
D11*
X136652000Y-51816000D03*
G04 #@! TD*
D10*
G04 #@! TO.C,C5*
X58166000Y-67838000D03*
X58166000Y-70338000D03*
G04 #@! TD*
D15*
G04 #@! TO.C,U4*
X80695800Y-79400400D03*
X80695800Y-81940400D03*
X80695800Y-84480400D03*
X80695800Y-87020400D03*
X80695800Y-89560400D03*
X80695800Y-92100400D03*
X80695800Y-94640400D03*
X80695800Y-97180400D03*
X80695800Y-99720400D03*
X55295800Y-79200400D03*
X52755800Y-79200400D03*
X52755800Y-100260400D03*
X55295800Y-100260400D03*
G04 #@! TD*
M02*
